<svg id="visual" viewBox="0 0 300 300" width="300" height="300" xmlns="http://www.w3.org/2000/svg" xmlns:xlink="http://www.w3.org/1999/xlink" version="1.1"><rect x="0" y="0" width="300" height="300" fill="#001220"></rect><g transform="translate(147.2923603462555 162.1656196901231)"><path d="M33.5 -43C48.9 -27 70.8 -21.7 78.8 -9C86.8 3.6 81.1 23.6 68.9 35.2C56.7 46.9 38.1 50.2 20.4 57.1C2.7 63.9 -14 74.2 -31.6 73.6C-49.1 72.9 -67.4 61.2 -73.9 45C-80.5 28.9 -75.2 8.3 -72.8 -14.1C-70.4 -36.6 -70.9 -60.8 -59.2 -77.5C-47.6 -94.2 -23.8 -103.3 -7.4 -94.6C9 -85.8 18.1 -59.1 33.5 -43" fill="#3c31dd"></path></g></svg>