<svg id="visual" viewBox="0 0 960 300" width="960" height="300" xmlns="http://www.w3.org/2000/svg" xmlns:xlink="http://www.w3.org/1999/xlink" version="1.1"><rect x="0" y="0" width="960" height="300" fill="#3c31dd"></rect><path d="M0 143L14.5 146.8C29 150.7 58 158.3 87.2 155.7C116.3 153 145.7 140 174.8 138.3C204 136.7 233 146.3 262 148.7C291 151 320 146 349 136.7C378 127.3 407 113.7 436.2 110.2C465.3 106.7 494.7 113.3 523.8 113.2C553 113 582 106 611 108.7C640 111.3 669 123.7 698 132.5C727 141.3 756 146.7 785.2 152.2C814.3 157.7 843.7 163.3 872.8 163.5C902 163.7 931 158.3 945.5 155.7L960 153L960 301L945.5 301C931 301 902 301 872.8 301C843.7 301 814.3 301 785.2 301C756 301 727 301 698 301C669 301 640 301 611 301C582 301 553 301 523.8 301C494.7 301 465.3 301 436.2 301C407 301 378 301 349 301C320 301 291 301 262 301C233 301 204 301 174.8 301C145.7 301 116.3 301 87.2 301C58 301 29 301 14.5 301L0 301Z" fill="#0066ff"></path><path d="M0 133L14.5 137.3C29 141.7 58 150.3 87.2 156.3C116.3 162.3 145.7 165.7 174.8 169.7C204 173.7 233 178.3 262 178.3C291 178.3 320 173.7 349 175.7C378 177.7 407 186.3 436.2 183.2C465.3 180 494.7 165 523.8 159.5C553 154 582 158 611 159.2C640 160.3 669 158.7 698 159C727 159.3 756 161.7 785.2 159.2C814.3 156.7 843.7 149.3 872.8 149.5C902 149.7 931 157.3 945.5 161.2L960 165L960 301L945.5 301C931 301 902 301 872.8 301C843.7 301 814.3 301 785.2 301C756 301 727 301 698 301C669 301 640 301 611 301C582 301 553 301 523.8 301C494.7 301 465.3 301 436.2 301C407 301 378 301 349 301C320 301 291 301 262 301C233 301 204 301 174.8 301C145.7 301 116.3 301 87.2 301C58 301 29 301 14.5 301L0 301Z" fill="#004db1"></path><path d="M0 187L14.5 194C29 201 58 215 87.2 217.5C116.3 220 145.7 211 174.8 204.8C204 198.7 233 195.3 262 198.7C291 202 320 212 349 210.8C378 209.7 407 197.3 436.2 197C465.3 196.7 494.7 208.3 523.8 217.7C553 227 582 234 611 229.7C640 225.3 669 209.7 698 209.8C727 210 756 226 785.2 231.3C814.3 236.7 843.7 231.3 872.8 231.3C902 231.3 931 236.7 945.5 239.3L960 242L960 301L945.5 301C931 301 902 301 872.8 301C843.7 301 814.3 301 785.2 301C756 301 727 301 698 301C669 301 640 301 611 301C582 301 553 301 523.8 301C494.7 301 465.3 301 436.2 301C407 301 378 301 349 301C320 301 291 301 262 301C233 301 204 301 174.8 301C145.7 301 116.3 301 87.2 301C58 301 29 301 14.5 301L0 301Z" fill="#003266"></path><path d="M0 264L14.5 259.3C29 254.7 58 245.3 87.2 245.3C116.3 245.3 145.7 254.7 174.8 252.7C204 250.7 233 237.3 262 236C291 234.7 320 245.3 349 246.3C378 247.3 407 238.7 436.2 238.3C465.3 238 494.7 246 523.8 247C553 248 582 242 611 241.3C640 240.7 669 245.3 698 243.2C727 241 756 232 785.2 236.8C814.3 241.7 843.7 260.3 872.8 265.2C902 270 931 261 945.5 256.5L960 252L960 301L945.5 301C931 301 902 301 872.8 301C843.7 301 814.3 301 785.2 301C756 301 727 301 698 301C669 301 640 301 611 301C582 301 553 301 523.8 301C494.7 301 465.3 301 436.2 301C407 301 378 301 349 301C320 301 291 301 262 301C233 301 204 301 174.8 301C145.7 301 116.3 301 87.2 301C58 301 29 301 14.5 301L0 301Z" fill="#001220"></path></svg>