<svg id="visual" viewBox="0 0 960 300" width="960" height="300" xmlns="http://www.w3.org/2000/svg" xmlns:xlink="http://www.w3.org/1999/xlink" version="1.1"><rect x="0" y="0" width="960" height="300" fill="#3c31dd"></rect><path d="M0 203L14.5 210C29 217 58 231 87.2 238.3C116.3 245.7 145.7 246.3 174.8 237.3C204 228.3 233 209.7 262 202.7C291 195.7 320 200.3 349 196.7C378 193 407 181 436.2 176.3C465.3 171.7 494.7 174.3 523.8 177.5C553 180.7 582 184.3 611 191.3C640 198.3 669 208.7 698 212.7C727 216.7 756 214.3 785.2 216C814.3 217.7 843.7 223.3 872.8 226.3C902 229.3 931 229.7 945.5 229.8L960 230L960 0L945.5 0C931 0 902 0 872.8 0C843.7 0 814.3 0 785.2 0C756 0 727 0 698 0C669 0 640 0 611 0C582 0 553 0 523.8 0C494.7 0 465.3 0 436.2 0C407 0 378 0 349 0C320 0 291 0 262 0C233 0 204 0 174.8 0C145.7 0 116.3 0 87.2 0C58 0 29 0 14.5 0L0 0Z" fill="#0066ff"></path><path d="M0 159L14.5 157C29 155 58 151 87.2 150.7C116.3 150.3 145.7 153.7 174.8 151C204 148.3 233 139.7 262 144.2C291 148.7 320 166.3 349 172C378 177.7 407 171.3 436.2 167.3C465.3 163.3 494.7 161.7 523.8 165.7C553 169.7 582 179.3 611 178.2C640 177 669 165 698 162.7C727 160.3 756 167.7 785.2 174.8C814.3 182 843.7 189 872.8 183.8C902 178.7 931 161.3 945.5 152.7L960 144L960 0L945.5 0C931 0 902 0 872.8 0C843.7 0 814.3 0 785.2 0C756 0 727 0 698 0C669 0 640 0 611 0C582 0 553 0 523.8 0C494.7 0 465.3 0 436.2 0C407 0 378 0 349 0C320 0 291 0 262 0C233 0 204 0 174.8 0C145.7 0 116.3 0 87.2 0C58 0 29 0 14.5 0L0 0Z" fill="#004db1"></path><path d="M0 106L14.5 111.2C29 116.3 58 126.7 87.2 125.2C116.3 123.7 145.7 110.3 174.8 112.2C204 114 233 131 262 139.7C291 148.3 320 148.7 349 143C378 137.3 407 125.7 436.2 122.3C465.3 119 494.7 124 523.8 121.7C553 119.3 582 109.7 611 110.8C640 112 669 124 698 125.8C727 127.7 756 119.3 785.2 120C814.3 120.7 843.7 130.3 872.8 125C902 119.7 931 99.3 945.5 89.2L960 79L960 0L945.5 0C931 0 902 0 872.8 0C843.7 0 814.3 0 785.2 0C756 0 727 0 698 0C669 0 640 0 611 0C582 0 553 0 523.8 0C494.7 0 465.3 0 436.2 0C407 0 378 0 349 0C320 0 291 0 262 0C233 0 204 0 174.8 0C145.7 0 116.3 0 87.2 0C58 0 29 0 14.5 0L0 0Z" fill="#003266"></path><path d="M0 41L14.5 39.2C29 37.3 58 33.7 87.2 38.7C116.3 43.7 145.7 57.3 174.8 59.7C204 62 233 53 262 46.7C291 40.3 320 36.7 349 36.8C378 37 407 41 436.2 51.3C465.3 61.7 494.7 78.3 523.8 75.7C553 73 582 51 611 45.2C640 39.3 669 49.7 698 51.2C727 52.7 756 45.3 785.2 49C814.3 52.7 843.7 67.3 872.8 73.3C902 79.3 931 76.7 945.5 75.3L960 74L960 0L945.5 0C931 0 902 0 872.8 0C843.7 0 814.3 0 785.2 0C756 0 727 0 698 0C669 0 640 0 611 0C582 0 553 0 523.8 0C494.7 0 465.3 0 436.2 0C407 0 378 0 349 0C320 0 291 0 262 0C233 0 204 0 174.8 0C145.7 0 116.3 0 87.2 0C58 0 29 0 14.5 0L0 0Z" fill="#001220"></path></svg>