<svg id="visual" viewBox="0 0 960 300" width="960" height="300" xmlns="http://www.w3.org/2000/svg" xmlns:xlink="http://www.w3.org/1999/xlink" version="1.1"><rect x="0" y="0" width="960" height="300" fill="#3c31dd"></rect><path d="M0 188L14.5 197.8C29 207.7 58 227.3 87.2 229.3C116.3 231.3 145.7 215.7 174.8 215.7C204 215.7 233 231.3 262 231.5C291 231.7 320 216.3 349 210.8C378 205.3 407 209.7 436.2 215.7C465.3 221.7 494.7 229.3 523.8 236C553 242.7 582 248.3 611 240.3C640 232.3 669 210.7 698 208C727 205.3 756 221.7 785.2 231.5C814.3 241.3 843.7 244.7 872.8 232.5C902 220.3 931 192.7 945.5 178.8L960 165L960 0L945.5 0C931 0 902 0 872.8 0C843.7 0 814.3 0 785.2 0C756 0 727 0 698 0C669 0 640 0 611 0C582 0 553 0 523.8 0C494.7 0 465.3 0 436.2 0C407 0 378 0 349 0C320 0 291 0 262 0C233 0 204 0 174.8 0C145.7 0 116.3 0 87.2 0C58 0 29 0 14.5 0L0 0Z" fill="#0066ff"></path><path d="M0 139L14.5 145.2C29 151.3 58 163.7 87.2 162.3C116.3 161 145.7 146 174.8 150.2C204 154.3 233 177.7 262 183.7C291 189.7 320 178.3 349 178.2C378 178 407 189 436.2 190.5C465.3 192 494.7 184 523.8 174.2C553 164.3 582 152.7 611 150.7C640 148.7 669 156.3 698 159.8C727 163.3 756 162.7 785.2 169C814.3 175.3 843.7 188.7 872.8 191.8C902 195 931 188 945.5 184.5L960 181L960 0L945.5 0C931 0 902 0 872.8 0C843.7 0 814.3 0 785.2 0C756 0 727 0 698 0C669 0 640 0 611 0C582 0 553 0 523.8 0C494.7 0 465.3 0 436.2 0C407 0 378 0 349 0C320 0 291 0 262 0C233 0 204 0 174.8 0C145.7 0 116.3 0 87.2 0C58 0 29 0 14.5 0L0 0Z" fill="#004db1"></path><path d="M0 150L14.5 138.8C29 127.7 58 105.3 87.2 103.8C116.3 102.3 145.7 121.7 174.8 130C204 138.3 233 135.7 262 132C291 128.3 320 123.7 349 121.2C378 118.7 407 118.3 436.2 120.7C465.3 123 494.7 128 523.8 123.7C553 119.3 582 105.7 611 103.3C640 101 669 110 698 114.3C727 118.7 756 118.3 785.2 120C814.3 121.7 843.7 125.3 872.8 117.5C902 109.7 931 90.3 945.5 80.7L960 71L960 0L945.5 0C931 0 902 0 872.8 0C843.7 0 814.3 0 785.2 0C756 0 727 0 698 0C669 0 640 0 611 0C582 0 553 0 523.8 0C494.7 0 465.3 0 436.2 0C407 0 378 0 349 0C320 0 291 0 262 0C233 0 204 0 174.8 0C145.7 0 116.3 0 87.2 0C58 0 29 0 14.5 0L0 0Z" fill="#003266"></path><path d="M0 94L14.5 90.3C29 86.7 58 79.3 87.2 70C116.3 60.7 145.7 49.3 174.8 42.8C204 36.3 233 34.7 262 39.8C291 45 320 57 349 62.7C378 68.3 407 67.7 436.2 62.8C465.3 58 494.7 49 523.8 50.7C553 52.3 582 64.7 611 65.8C640 67 669 57 698 50.3C727 43.7 756 40.3 785.2 45.8C814.3 51.3 843.7 65.7 872.8 65.2C902 64.7 931 49.3 945.5 41.7L960 34L960 0L945.5 0C931 0 902 0 872.8 0C843.7 0 814.3 0 785.2 0C756 0 727 0 698 0C669 0 640 0 611 0C582 0 553 0 523.8 0C494.7 0 465.3 0 436.2 0C407 0 378 0 349 0C320 0 291 0 262 0C233 0 204 0 174.8 0C145.7 0 116.3 0 87.2 0C58 0 29 0 14.5 0L0 0Z" fill="#001220"></path></svg>