<svg id="visual" viewBox="0 0 960 200" width="960" height="200" xmlns="http://www.w3.org/2000/svg" xmlns:xlink="http://www.w3.org/1999/xlink" version="1.1"><rect x="0" y="0" width="960" height="200" fill="#3c31dd"></rect><path d="M0 125L14.5 131.7C29 138.3 58 151.7 87.2 153C116.3 154.3 145.7 143.7 174.8 143.7C204 143.7 233 154.3 262 154.5C291 154.7 320 144.3 349 140.7C378 137 407 140 436.2 144C465.3 148 494.7 153 523.8 157.3C553 161.7 582 165.3 611 160C640 154.7 669 140.3 698 138.5C727 136.7 756 147.3 785.2 153.8C814.3 160.3 843.7 162.7 872.8 154.7C902 146.7 931 128.3 945.5 119.2L960 110L960 0L945.5 0C931 0 902 0 872.8 0C843.7 0 814.3 0 785.2 0C756 0 727 0 698 0C669 0 640 0 611 0C582 0 553 0 523.8 0C494.7 0 465.3 0 436.2 0C407 0 378 0 349 0C320 0 291 0 262 0C233 0 204 0 174.8 0C145.7 0 116.3 0 87.2 0C58 0 29 0 14.5 0L0 0Z" fill="#0066ff"></path><path d="M0 92L14.5 96.2C29 100.3 58 108.7 87.2 107.8C116.3 107 145.7 97 174.8 99.8C204 102.7 233 118.3 262 122.3C291 126.3 320 118.7 349 118.5C378 118.3 407 125.7 436.2 126.7C465.3 127.7 494.7 122.3 523.8 115.8C553 109.3 582 101.7 611 100.3C640 99 669 104 698 106.3C727 108.7 756 108.3 785.2 112.5C814.3 116.7 843.7 125.3 872.8 127.3C902 129.3 931 124.7 945.5 122.3L960 120L960 0L945.5 0C931 0 902 0 872.8 0C843.7 0 814.3 0 785.2 0C756 0 727 0 698 0C669 0 640 0 611 0C582 0 553 0 523.8 0C494.7 0 465.3 0 436.2 0C407 0 378 0 349 0C320 0 291 0 262 0C233 0 204 0 174.8 0C145.7 0 116.3 0 87.2 0C58 0 29 0 14.5 0L0 0Z" fill="#004db1"></path><path d="M0 100L14.5 92.5C29 85 58 70 87.2 69C116.3 68 145.7 81 174.8 86.5C204 92 233 90 262 87.5C291 85 320 82 349 80.3C378 78.7 407 78.3 436.2 79.8C465.3 81.3 494.7 84.7 523.8 81.8C553 79 582 70 611 68.5C640 67 669 73 698 76C727 79 756 79 785.2 80.2C814.3 81.3 843.7 83.7 872.8 78.3C902 73 931 60 945.5 53.5L960 47L960 0L945.5 0C931 0 902 0 872.8 0C843.7 0 814.3 0 785.2 0C756 0 727 0 698 0C669 0 640 0 611 0C582 0 553 0 523.8 0C494.7 0 465.3 0 436.2 0C407 0 378 0 349 0C320 0 291 0 262 0C233 0 204 0 174.8 0C145.7 0 116.3 0 87.2 0C58 0 29 0 14.5 0L0 0Z" fill="#003266"></path><path d="M0 62L14.5 59.7C29 57.3 58 52.7 87.2 46.5C116.3 40.3 145.7 32.7 174.8 28.2C204 23.7 233 22.3 262 25.7C291 29 320 37 349 40.8C378 44.7 407 44.3 436.2 41.2C465.3 38 494.7 32 523.8 33.2C553 34.3 582 42.7 611 43.5C640 44.3 669 37.7 698 33.2C727 28.7 756 26.3 785.2 30C814.3 33.7 843.7 43.3 872.8 43C902 42.7 931 32.3 945.5 27.2L960 22L960 0L945.5 0C931 0 902 0 872.8 0C843.7 0 814.3 0 785.2 0C756 0 727 0 698 0C669 0 640 0 611 0C582 0 553 0 523.8 0C494.7 0 465.3 0 436.2 0C407 0 378 0 349 0C320 0 291 0 262 0C233 0 204 0 174.8 0C145.7 0 116.3 0 87.2 0C58 0 29 0 14.5 0L0 0Z" fill="#001220"></path></svg>