<svg id="visual" viewBox="0 0 1920 300" width="1920" height="300" xmlns="http://www.w3.org/2000/svg" xmlns:xlink="http://www.w3.org/1999/xlink" version="1.1"><rect x="0" y="0" width="1920" height="300" fill="#001220"></rect><path d="M0 24L35.5 46.3C71 68.7 142 113.3 213.2 112C284.3 110.7 355.7 63.3 426.8 41.3C498 19.3 569 22.7 640 38.3C711 54 782 82 853.2 106.8C924.3 131.7 995.7 153.3 1066.8 137C1138 120.7 1209 66.3 1280 63C1351 59.7 1422 107.3 1493.2 122.7C1564.3 138 1635.7 121 1706.8 107C1778 93 1849 82 1884.5 76.5L1920 71L1920 301L1884.5 301C1849 301 1778 301 1706.8 301C1635.7 301 1564.3 301 1493.2 301C1422 301 1351 301 1280 301C1209 301 1138 301 1066.8 301C995.7 301 924.3 301 853.2 301C782 301 711 301 640 301C569 301 498 301 426.8 301C355.7 301 284.3 301 213.2 301C142 301 71 301 35.5 301L0 301Z" fill="#002233"></path><path d="M0 209L35.5 203.2C71 197.3 142 185.7 213.2 174.5C284.3 163.3 355.7 152.7 426.8 158C498 163.3 569 184.7 640 195.3C711 206 782 206 853.2 193.2C924.3 180.3 995.7 154.7 1066.8 135.7C1138 116.7 1209 104.3 1280 116.5C1351 128.7 1422 165.3 1493.2 164.5C1564.3 163.7 1635.7 125.3 1706.8 109.8C1778 94.3 1849 101.7 1884.5 105.3L1920 109L1920 301L1884.5 301C1849 301 1778 301 1706.8 301C1635.7 301 1564.3 301 1493.2 301C1422 301 1351 301 1280 301C1209 301 1138 301 1066.8 301C995.7 301 924.3 301 853.2 301C782 301 711 301 640 301C569 301 498 301 426.8 301C355.7 301 284.3 301 213.2 301C142 301 71 301 35.5 301L0 301Z" fill="#003673"></path><path d="M0 165L35.5 178.2C71 191.3 142 217.7 213.2 232.7C284.3 247.7 355.7 251.3 426.8 236.2C498 221 569 187 640 166.7C711 146.3 782 139.7 853.2 136.5C924.3 133.3 995.7 133.7 1066.8 152C1138 170.3 1209 206.7 1280 225C1351 243.3 1422 243.7 1493.2 229.8C1564.3 216 1635.7 188 1706.8 186.3C1778 184.7 1849 209.3 1884.5 221.7L1920 234L1920 301L1884.5 301C1849 301 1778 301 1706.8 301C1635.7 301 1564.3 301 1493.2 301C1422 301 1351 301 1280 301C1209 301 1138 301 1066.8 301C995.7 301 924.3 301 853.2 301C782 301 711 301 640 301C569 301 498 301 426.8 301C355.7 301 284.3 301 213.2 301C142 301 71 301 35.5 301L0 301Z" fill="#003bab"></path><path d="M0 259L35.5 261.3C71 263.7 142 268.3 213.2 271C284.3 273.7 355.7 274.3 426.8 270C498 265.7 569 256.3 640 252.7C711 249 782 251 853.2 247C924.3 243 995.7 233 1066.8 231C1138 229 1209 235 1280 238C1351 241 1422 241 1493.2 239.5C1564.3 238 1635.7 235 1706.8 226.3C1778 217.7 1849 203.3 1884.5 196.2L1920 189L1920 301L1884.5 301C1849 301 1778 301 1706.8 301C1635.7 301 1564.3 301 1493.2 301C1422 301 1351 301 1280 301C1209 301 1138 301 1066.8 301C995.7 301 924.3 301 853.2 301C782 301 711 301 640 301C569 301 498 301 426.8 301C355.7 301 284.3 301 213.2 301C142 301 71 301 35.5 301L0 301Z" fill="#3c31dd"></path></svg>