<svg id="visual" viewBox="0 0 1920 300" width="1920" height="300" xmlns="http://www.w3.org/2000/svg" xmlns:xlink="http://www.w3.org/1999/xlink" version="1.1"><rect x="0" y="0" width="1920" height="300" fill="#001220"></rect><path d="M0 134L35.5 118.5C71 103 142 72 213.2 79.3C284.3 86.7 355.7 132.3 426.8 141.2C498 150 569 122 640 100.2C711 78.3 782 62.7 853.2 72.7C924.3 82.7 995.7 118.3 1066.8 114.2C1138 110 1209 66 1280 63.8C1351 61.7 1422 101.3 1493.2 122.2C1564.3 143 1635.7 145 1706.8 132.2C1778 119.3 1849 91.7 1884.5 77.8L1920 64L1920 301L1884.5 301C1849 301 1778 301 1706.8 301C1635.7 301 1564.3 301 1493.2 301C1422 301 1351 301 1280 301C1209 301 1138 301 1066.8 301C995.7 301 924.3 301 853.2 301C782 301 711 301 640 301C569 301 498 301 426.8 301C355.7 301 284.3 301 213.2 301C142 301 71 301 35.5 301L0 301Z" fill="#002233"></path><path d="M0 133L35.5 132.3C71 131.7 142 130.3 213.2 141.5C284.3 152.7 355.7 176.3 426.8 176.7C498 177 569 154 640 147.5C711 141 782 151 853.2 156.5C924.3 162 995.7 163 1066.8 160.8C1138 158.7 1209 153.3 1280 143.8C1351 134.3 1422 120.7 1493.2 123.5C1564.3 126.3 1635.7 145.7 1706.8 157.3C1778 169 1849 173 1884.5 175L1920 177L1920 301L1884.5 301C1849 301 1778 301 1706.8 301C1635.7 301 1564.3 301 1493.2 301C1422 301 1351 301 1280 301C1209 301 1138 301 1066.8 301C995.7 301 924.3 301 853.2 301C782 301 711 301 640 301C569 301 498 301 426.8 301C355.7 301 284.3 301 213.2 301C142 301 71 301 35.5 301L0 301Z" fill="#003673"></path><path d="M0 214L35.5 214.3C71 214.7 142 215.3 213.2 220.5C284.3 225.7 355.7 235.3 426.8 240.8C498 246.3 569 247.7 640 235.2C711 222.7 782 196.3 853.2 178.8C924.3 161.3 995.7 152.7 1066.8 154.5C1138 156.3 1209 168.7 1280 174.7C1351 180.7 1422 180.3 1493.2 184.2C1564.3 188 1635.7 196 1706.8 201.7C1778 207.3 1849 210.7 1884.5 212.3L1920 214L1920 301L1884.5 301C1849 301 1778 301 1706.8 301C1635.7 301 1564.3 301 1493.2 301C1422 301 1351 301 1280 301C1209 301 1138 301 1066.8 301C995.7 301 924.3 301 853.2 301C782 301 711 301 640 301C569 301 498 301 426.8 301C355.7 301 284.3 301 213.2 301C142 301 71 301 35.5 301L0 301Z" fill="#003bab"></path><path d="M0 217L35.5 221.3C71 225.7 142 234.3 213.2 242.7C284.3 251 355.7 259 426.8 264.3C498 269.7 569 272.3 640 264C711 255.7 782 236.3 853.2 235.8C924.3 235.3 995.7 253.7 1066.8 259C1138 264.3 1209 256.7 1280 255.7C1351 254.7 1422 260.3 1493.2 254.2C1564.3 248 1635.7 230 1706.8 231.8C1778 233.7 1849 255.3 1884.5 266.2L1920 277L1920 301L1884.5 301C1849 301 1778 301 1706.8 301C1635.7 301 1564.3 301 1493.2 301C1422 301 1351 301 1280 301C1209 301 1138 301 1066.8 301C995.7 301 924.3 301 853.2 301C782 301 711 301 640 301C569 301 498 301 426.8 301C355.7 301 284.3 301 213.2 301C142 301 71 301 35.5 301L0 301Z" fill="#3c31dd"></path></svg>