<svg id="visual" viewBox="0 0 1000 300" width="1920" height="300"
    xmlns="http://www.w3.org/2000/svg"
    xmlns:xlink="http://www.w3.org/1999/xlink" version="1.1">
    <rect x="0" y="0" width="1920" height="300" fill="#3c31dd"></rect>
    <path d="M0 137L29.2 133.5C58.3 130 116.7 123 174.8 123.3C233 123.7 291 131.3 349.2 134.8C407.3 138.3 465.7 137.7 523.8 136.5C582 135.3 640 133.7 698.2 130.3C756.3 127 814.7 122 872.8 125.8C931 129.7 989 142.3 1047.2 147.5C1105.3 152.7 1163.7 150.3 1221.8 143.3C1280 136.3 1338 124.7 1396.2 115C1454.3 105.3 1512.7 97.7 1570.8 95.8C1629 94 1687 98 1745.2 107.2C1803.3 116.3 1861.7 130.7 1890.8 137.8L1920 145L1920 301L1890.8 301C1861.7 301 1803.3 301 1745.2 301C1687 301 1629 301 1570.8 301C1512.7 301 1454.3 301 1396.2 301C1338 301 1280 301 1221.8 301C1163.7 301 1105.3 301 1047.2 301C989 301 931 301 872.8 301C814.7 301 756.3 301 698.2 301C640 301 582 301 523.8 301C465.7 301 407.3 301 349.2 301C291 301 233 301 174.8 301C116.7 301 58.3 301 29.2 301L0 301Z" fill="#0066ff"></path>
    <path d="M0 194L29.2 185.8C58.3 177.7 116.7 161.3 174.8 155.5C233 149.7 291 154.3 349.2 157.7C407.3 161 465.7 163 523.8 168.5C582 174 640 183 698.2 186.3C756.3 189.7 814.7 187.3 872.8 187.3C931 187.3 989 189.7 1047.2 184.5C1105.3 179.3 1163.7 166.7 1221.8 166.5C1280 166.3 1338 178.7 1396.2 176.3C1454.3 174 1512.7 157 1570.8 156.8C1629 156.7 1687 173.3 1745.2 181.7C1803.3 190 1861.7 190 1890.8 190L1920 190L1920 301L1890.8 301C1861.7 301 1803.3 301 1745.2 301C1687 301 1629 301 1570.8 301C1512.7 301 1454.3 301 1396.2 301C1338 301 1280 301 1221.8 301C1163.7 301 1105.3 301 1047.2 301C989 301 931 301 872.8 301C814.7 301 756.3 301 698.2 301C640 301 582 301 523.8 301C465.7 301 407.3 301 349.2 301C291 301 233 301 174.8 301C116.7 301 58.3 301 29.2 301L0 301Z" fill="#004db1"></path>
    <path d="M0 201L29.2 207.2C58.3 213.3 116.7 225.7 174.8 226C233 226.3 291 214.7 349.2 205.7C407.3 196.7 465.7 190.3 523.8 194.7C582 199 640 214 698.2 215.2C756.3 216.3 814.7 203.7 872.8 202C931 200.3 989 209.7 1047.2 216.2C1105.3 222.7 1163.7 226.3 1221.8 229C1280 231.7 1338 233.3 1396.2 229.2C1454.3 225 1512.7 215 1570.8 208.2C1629 201.3 1687 197.7 1745.2 197.2C1803.3 196.7 1861.7 199.3 1890.8 200.7L1920 202L1920 301L1890.8 301C1861.7 301 1803.3 301 1745.2 301C1687 301 1629 301 1570.8 301C1512.7 301 1454.3 301 1396.2 301C1338 301 1280 301 1221.8 301C1163.7 301 1105.3 301 1047.2 301C989 301 931 301 872.8 301C814.7 301 756.3 301 698.2 301C640 301 582 301 523.8 301C465.7 301 407.3 301 349.2 301C291 301 233 301 174.8 301C116.7 301 58.3 301 29.2 301L0 301Z" fill="#003266"></path>
    <path d="M0 259L29.2 256.7C58.3 254.3 116.7 249.7 174.8 251C233 252.3 291 259.7 349.2 260C407.3 260.3 465.7 253.7 523.8 250.5C582 247.3 640 247.7 698.2 252C756.3 256.3 814.7 264.7 872.8 267.2C931 269.7 989 266.3 1047.2 258.8C1105.3 251.3 1163.7 239.7 1221.8 240.2C1280 240.7 1338 253.3 1396.2 258.5C1454.3 263.7 1512.7 261.3 1570.8 254.7C1629 248 1687 237 1745.2 237.7C1803.3 238.3 1861.7 250.7 1890.8 256.8L1920 263L1920 301L1890.8 301C1861.7 301 1803.3 301 1745.2 301C1687 301 1629 301 1570.8 301C1512.7 301 1454.3 301 1396.2 301C1338 301 1280 301 1221.8 301C1163.7 301 1105.3 301 1047.2 301C989 301 931 301 872.8 301C814.7 301 756.3 301 698.2 301C640 301 582 301 523.8 301C465.7 301 407.3 301 349.2 301C291 301 233 301 174.8 301C116.7 301 58.3 301 29.2 301L0 301Z" fill="#001220"></path>
</svg>