<svg id="visual" viewBox="0 0 1920 300" width="1920" height="300" xmlns="http://www.w3.org/2000/svg" xmlns:xlink="http://www.w3.org/1999/xlink" version="1.1"><rect x="0" y="0" width="1920" height="300" fill="#3c31dd"></rect><path d="M0 109L29.2 116.8C58.3 124.7 116.7 140.3 174.8 139.3C233 138.3 291 120.7 349.2 123C407.3 125.3 465.7 147.7 523.8 152C582 156.3 640 142.7 698.2 138C756.3 133.3 814.7 137.7 872.8 138C931 138.3 989 134.7 1047.2 126.7C1105.3 118.7 1163.7 106.3 1221.8 111C1280 115.7 1338 137.3 1396.2 145.8C1454.3 154.3 1512.7 149.7 1570.8 141.7C1629 133.7 1687 122.3 1745.2 123.3C1803.3 124.3 1861.7 137.7 1890.8 144.3L1920 151L1920 301L1890.8 301C1861.7 301 1803.3 301 1745.2 301C1687 301 1629 301 1570.8 301C1512.7 301 1454.3 301 1396.2 301C1338 301 1280 301 1221.8 301C1163.7 301 1105.3 301 1047.2 301C989 301 931 301 872.8 301C814.7 301 756.3 301 698.2 301C640 301 582 301 523.8 301C465.7 301 407.3 301 349.2 301C291 301 233 301 174.8 301C116.7 301 58.3 301 29.2 301L0 301Z" fill="#0066ff"></path><path d="M0 157L29.2 162C58.3 167 116.7 177 174.8 172.8C233 168.7 291 150.3 349.2 151C407.3 151.7 465.7 171.3 523.8 174C582 176.7 640 162.3 698.2 157.8C756.3 153.3 814.7 158.7 872.8 161.5C931 164.3 989 164.7 1047.2 167.8C1105.3 171 1163.7 177 1221.8 183.2C1280 189.3 1338 195.7 1396.2 198.7C1454.3 201.7 1512.7 201.3 1570.8 191.8C1629 182.3 1687 163.7 1745.2 160.3C1803.3 157 1861.7 169 1890.8 175L1920 181L1920 301L1890.8 301C1861.7 301 1803.3 301 1745.2 301C1687 301 1629 301 1570.8 301C1512.7 301 1454.3 301 1396.2 301C1338 301 1280 301 1221.8 301C1163.7 301 1105.3 301 1047.2 301C989 301 931 301 872.8 301C814.7 301 756.3 301 698.2 301C640 301 582 301 523.8 301C465.7 301 407.3 301 349.2 301C291 301 233 301 174.8 301C116.7 301 58.3 301 29.2 301L0 301Z" fill="#004db1"></path><path d="M0 233L29.2 234.3C58.3 235.7 116.7 238.3 174.8 237.8C233 237.3 291 233.7 349.2 230.2C407.3 226.7 465.7 223.3 523.8 225.2C582 227 640 234 698.2 233.8C756.3 233.7 814.7 226.3 872.8 225.5C931 224.7 989 230.3 1047.2 224.3C1105.3 218.3 1163.7 200.7 1221.8 193.3C1280 186 1338 189 1396.2 189.3C1454.3 189.7 1512.7 187.3 1570.8 195.2C1629 203 1687 221 1745.2 224.2C1803.3 227.3 1861.7 215.7 1890.8 209.8L1920 204L1920 301L1890.8 301C1861.7 301 1803.3 301 1745.2 301C1687 301 1629 301 1570.8 301C1512.7 301 1454.3 301 1396.2 301C1338 301 1280 301 1221.8 301C1163.7 301 1105.3 301 1047.2 301C989 301 931 301 872.8 301C814.7 301 756.3 301 698.2 301C640 301 582 301 523.8 301C465.7 301 407.3 301 349.2 301C291 301 233 301 174.8 301C116.7 301 58.3 301 29.2 301L0 301Z" fill="#003266"></path><path d="M0 239L29.2 244.5C58.3 250 116.7 261 174.8 259C233 257 291 242 349.2 239.8C407.3 237.7 465.7 248.3 523.8 251.7C582 255 640 251 698.2 249.3C756.3 247.7 814.7 248.3 872.8 250.5C931 252.7 989 256.3 1047.2 261.5C1105.3 266.7 1163.7 273.3 1221.8 270.7C1280 268 1338 256 1396.2 247.2C1454.3 238.3 1512.7 232.7 1570.8 232C1629 231.3 1687 235.7 1745.2 244.2C1803.3 252.7 1861.7 265.3 1890.8 271.7L1920 278L1920 301L1890.8 301C1861.7 301 1803.3 301 1745.2 301C1687 301 1629 301 1570.8 301C1512.7 301 1454.3 301 1396.2 301C1338 301 1280 301 1221.8 301C1163.7 301 1105.3 301 1047.2 301C989 301 931 301 872.8 301C814.7 301 756.3 301 698.2 301C640 301 582 301 523.8 301C465.7 301 407.3 301 349.2 301C291 301 233 301 174.8 301C116.7 301 58.3 301 29.2 301L0 301Z" fill="#001220"></path></svg>