<svg id="visual" viewBox="0 0 1920 200" width="1920" height="200" xmlns="http://www.w3.org/2000/svg" xmlns:xlink="http://www.w3.org/1999/xlink" version="1.1"><rect x="0" y="0" width="1920" height="200" fill="#001220"></rect><path d="M0 109L29.2 111.3C58.3 113.7 116.7 118.3 174.8 120.7C233 123 291 123 349.2 117C407.3 111 465.7 99 523.8 97C582 95 640 103 698.2 101.3C756.3 99.7 814.7 88.3 872.8 94.5C931 100.7 989 124.3 1047.2 127.5C1105.3 130.7 1163.7 113.3 1221.8 106.7C1280 100 1338 104 1396.2 100.8C1454.3 97.7 1512.7 87.3 1570.8 89.5C1629 91.7 1687 106.3 1745.2 113C1803.3 119.7 1861.7 118.3 1890.8 117.7L1920 117L1920 201L1890.8 201C1861.7 201 1803.3 201 1745.2 201C1687 201 1629 201 1570.8 201C1512.7 201 1454.3 201 1396.2 201C1338 201 1280 201 1221.8 201C1163.7 201 1105.3 201 1047.2 201C989 201 931 201 872.8 201C814.7 201 756.3 201 698.2 201C640 201 582 201 523.8 201C465.7 201 407.3 201 349.2 201C291 201 233 201 174.8 201C116.7 201 58.3 201 29.2 201L0 201Z" fill="#fcb514"></path><path d="M0 131L29.2 131.7C58.3 132.3 116.7 133.7 174.8 136.7C233 139.7 291 144.3 349.2 148.2C407.3 152 465.7 155 523.8 158C582 161 640 164 698.2 163C756.3 162 814.7 157 872.8 149.2C931 141.3 989 130.7 1047.2 132C1105.3 133.3 1163.7 146.7 1221.8 152C1280 157.3 1338 154.7 1396.2 147.8C1454.3 141 1512.7 130 1570.8 125.2C1629 120.3 1687 121.7 1745.2 129.5C1803.3 137.3 1861.7 151.7 1890.8 158.8L1920 166L1920 201L1890.8 201C1861.7 201 1803.3 201 1745.2 201C1687 201 1629 201 1570.8 201C1512.7 201 1454.3 201 1396.2 201C1338 201 1280 201 1221.8 201C1163.7 201 1105.3 201 1047.2 201C989 201 931 201 872.8 201C814.7 201 756.3 201 698.2 201C640 201 582 201 523.8 201C465.7 201 407.3 201 349.2 201C291 201 233 201 174.8 201C116.7 201 58.3 201 29.2 201L0 201Z" fill="#001220"></path><path d="M0 185L29.2 178C58.3 171 116.7 157 174.8 157.5C233 158 291 173 349.2 177.8C407.3 182.7 465.7 177.3 523.8 171.7C582 166 640 160 698.2 159C756.3 158 814.7 162 872.8 165.7C931 169.3 989 172.7 1047.2 173.5C1105.3 174.3 1163.7 172.7 1221.8 174.3C1280 176 1338 181 1396.2 181C1454.3 181 1512.7 176 1570.8 172.7C1629 169.3 1687 167.7 1745.2 164.3C1803.3 161 1861.7 156 1890.8 153.5L1920 151L1920 201L1890.8 201C1861.7 201 1803.3 201 1745.2 201C1687 201 1629 201 1570.8 201C1512.7 201 1454.3 201 1396.2 201C1338 201 1280 201 1221.8 201C1163.7 201 1105.3 201 1047.2 201C989 201 931 201 872.8 201C814.7 201 756.3 201 698.2 201C640 201 582 201 523.8 201C465.7 201 407.3 201 349.2 201C291 201 233 201 174.8 201C116.7 201 58.3 201 29.2 201L0 201Z" fill="#fcb514"></path></svg>