<svg id="visual" viewBox="0 0 1920 200" width="1920" height="200" xmlns="http://www.w3.org/2000/svg" xmlns:xlink="http://www.w3.org/1999/xlink" version="1.1"><rect x="0" y="0" width="1920" height="200" fill="#001220"></rect><path d="M0 99L29.2 95.8C58.3 92.7 116.7 86.3 174.8 86.7C233 87 291 94 349.2 100.8C407.3 107.7 465.7 114.3 523.8 117.8C582 121.3 640 121.7 698.2 116.7C756.3 111.7 814.7 101.3 872.8 94C931 86.7 989 82.3 1047.2 85.5C1105.3 88.7 1163.7 99.3 1221.8 99.7C1280 100 1338 90 1396.2 91.7C1454.3 93.3 1512.7 106.7 1570.8 110.2C1629 113.7 1687 107.3 1745.2 102.8C1803.3 98.3 1861.7 95.7 1890.8 94.3L1920 93L1920 0L1890.8 0C1861.7 0 1803.3 0 1745.2 0C1687 0 1629 0 1570.8 0C1512.7 0 1454.3 0 1396.2 0C1338 0 1280 0 1221.8 0C1163.7 0 1105.3 0 1047.2 0C989 0 931 0 872.8 0C814.7 0 756.3 0 698.2 0C640 0 582 0 523.8 0C465.7 0 407.3 0 349.2 0C291 0 233 0 174.8 0C116.7 0 58.3 0 29.2 0L0 0Z" fill="#fcb514"></path><path d="M0 66L29.2 66.8C58.3 67.7 116.7 69.3 174.8 72.5C233 75.7 291 80.3 349.2 73.5C407.3 66.7 465.7 48.3 523.8 40.5C582 32.7 640 35.3 698.2 41.8C756.3 48.3 814.7 58.7 872.8 59C931 59.3 989 49.7 1047.2 50C1105.3 50.3 1163.7 60.7 1221.8 66.8C1280 73 1338 75 1396.2 76.8C1454.3 78.7 1512.7 80.3 1570.8 73.2C1629 66 1687 50 1745.2 45.5C1803.3 41 1861.7 48 1890.8 51.5L1920 55L1920 0L1890.8 0C1861.7 0 1803.3 0 1745.2 0C1687 0 1629 0 1570.8 0C1512.7 0 1454.3 0 1396.2 0C1338 0 1280 0 1221.8 0C1163.7 0 1105.3 0 1047.2 0C989 0 931 0 872.8 0C814.7 0 756.3 0 698.2 0C640 0 582 0 523.8 0C465.7 0 407.3 0 349.2 0C291 0 233 0 174.8 0C116.7 0 58.3 0 29.2 0L0 0Z" fill="#001220"></path><path d="M0 54L29.2 49.5C58.3 45 116.7 36 174.8 34.7C233 33.3 291 39.7 349.2 39.5C407.3 39.3 465.7 32.7 523.8 27.8C582 23 640 20 698.2 20.7C756.3 21.3 814.7 25.7 872.8 28C931 30.3 989 30.7 1047.2 30.8C1105.3 31 1163.7 31 1221.8 29.5C1280 28 1338 25 1396.2 24.3C1454.3 23.7 1512.7 25.3 1570.8 26.5C1629 27.7 1687 28.3 1745.2 29.3C1803.3 30.3 1861.7 31.7 1890.8 32.3L1920 33L1920 0L1890.8 0C1861.7 0 1803.3 0 1745.2 0C1687 0 1629 0 1570.8 0C1512.7 0 1454.3 0 1396.2 0C1338 0 1280 0 1221.8 0C1163.7 0 1105.3 0 1047.2 0C989 0 931 0 872.8 0C814.7 0 756.3 0 698.2 0C640 0 582 0 523.8 0C465.7 0 407.3 0 349.2 0C291 0 233 0 174.8 0C116.7 0 58.3 0 29.2 0L0 0Z" fill="#fcb514"></path></svg>