<svg id="visual" viewBox="0 0 1920 200" width="1920" height="200" xmlns="http://www.w3.org/2000/svg" xmlns:xlink="http://www.w3.org/1999/xlink" version="1.1"><rect x="0" y="0" width="1920" height="200" fill="#001220"></rect><path d="M0 110L29.2 111.7C58.3 113.3 116.7 116.7 174.8 114.2C233 111.7 291 103.3 349.2 96.7C407.3 90 465.7 85 523.8 85.8C582 86.7 640 93.3 698.2 93.5C756.3 93.7 814.7 87.3 872.8 89.2C931 91 989 101 1047.2 105.8C1105.3 110.7 1163.7 110.3 1221.8 116C1280 121.7 1338 133.3 1396.2 128.8C1454.3 124.3 1512.7 103.7 1570.8 101.7C1629 99.7 1687 116.3 1745.2 120.3C1803.3 124.3 1861.7 115.7 1890.8 111.3L1920 107L1920 201L1890.8 201C1861.7 201 1803.3 201 1745.2 201C1687 201 1629 201 1570.8 201C1512.7 201 1454.3 201 1396.2 201C1338 201 1280 201 1221.8 201C1163.7 201 1105.3 201 1047.2 201C989 201 931 201 872.8 201C814.7 201 756.3 201 698.2 201C640 201 582 201 523.8 201C465.7 201 407.3 201 349.2 201C291 201 233 201 174.8 201C116.7 201 58.3 201 29.2 201L0 201Z" fill="#fcb514"></path><path d="M0 165L29.2 158C58.3 151 116.7 137 174.8 135.5C233 134 291 145 349.2 151.8C407.3 158.7 465.7 161.3 523.8 156.5C582 151.7 640 139.3 698.2 133C756.3 126.7 814.7 126.3 872.8 130.2C931 134 989 142 1047.2 142.5C1105.3 143 1163.7 136 1221.8 130.5C1280 125 1338 121 1396.2 123.5C1454.3 126 1512.7 135 1570.8 136.5C1629 138 1687 132 1745.2 133.7C1803.3 135.3 1861.7 144.7 1890.8 149.3L1920 154L1920 201L1890.8 201C1861.7 201 1803.3 201 1745.2 201C1687 201 1629 201 1570.8 201C1512.7 201 1454.3 201 1396.2 201C1338 201 1280 201 1221.8 201C1163.7 201 1105.3 201 1047.2 201C989 201 931 201 872.8 201C814.7 201 756.3 201 698.2 201C640 201 582 201 523.8 201C465.7 201 407.3 201 349.2 201C291 201 233 201 174.8 201C116.7 201 58.3 201 29.2 201L0 201Z" fill="#001220"></path><path d="M0 144L29.2 146.3C58.3 148.7 116.7 153.3 174.8 159.3C233 165.3 291 172.7 349.2 172.7C407.3 172.7 465.7 165.3 523.8 162C582 158.7 640 159.3 698.2 164C756.3 168.7 814.7 177.3 872.8 174.2C931 171 989 156 1047.2 155.3C1105.3 154.7 1163.7 168.3 1221.8 172.7C1280 177 1338 172 1396.2 165.3C1454.3 158.7 1512.7 150.3 1570.8 152.8C1629 155.3 1687 168.7 1745.2 168.7C1803.3 168.7 1861.7 155.3 1890.8 148.7L1920 142L1920 201L1890.8 201C1861.7 201 1803.3 201 1745.2 201C1687 201 1629 201 1570.8 201C1512.7 201 1454.3 201 1396.2 201C1338 201 1280 201 1221.8 201C1163.7 201 1105.3 201 1047.2 201C989 201 931 201 872.8 201C814.7 201 756.3 201 698.2 201C640 201 582 201 523.8 201C465.7 201 407.3 201 349.2 201C291 201 233 201 174.8 201C116.7 201 58.3 201 29.2 201L0 201Z" fill="#fcb514"></path></svg>