<svg id="visual" viewBox="0 0 1920 200" width="1920" height="200" xmlns="http://www.w3.org/2000/svg" xmlns:xlink="http://www.w3.org/1999/xlink" version="1.1"><rect x="0" y="0" width="1920" height="200" fill="#001220"></rect><path d="M0 90L29.2 86.2C58.3 82.3 116.7 74.7 174.8 69.8C233 65 291 63 349.2 60.2C407.3 57.3 465.7 53.7 523.8 54.3C582 55 640 60 698.2 64.2C756.3 68.3 814.7 71.7 872.8 79.3C931 87 989 99 1047.2 106.8C1105.3 114.7 1163.7 118.3 1221.8 113.8C1280 109.3 1338 96.7 1396.2 85C1454.3 73.3 1512.7 62.7 1570.8 58.2C1629 53.7 1687 55.3 1745.2 55.7C1803.3 56 1861.7 55 1890.8 54.5L1920 54L1920 0L1890.8 0C1861.7 0 1803.3 0 1745.2 0C1687 0 1629 0 1570.8 0C1512.7 0 1454.3 0 1396.2 0C1338 0 1280 0 1221.8 0C1163.7 0 1105.3 0 1047.2 0C989 0 931 0 872.8 0C814.7 0 756.3 0 698.2 0C640 0 582 0 523.8 0C465.7 0 407.3 0 349.2 0C291 0 233 0 174.8 0C116.7 0 58.3 0 29.2 0L0 0Z" fill="#fcb514"></path><path d="M0 41L29.2 48C58.3 55 116.7 69 174.8 69.8C233 70.7 291 58.3 349.2 55.8C407.3 53.3 465.7 60.7 523.8 65.8C582 71 640 74 698.2 75.2C756.3 76.3 814.7 75.7 872.8 70C931 64.3 989 53.7 1047.2 49.3C1105.3 45 1163.7 47 1221.8 54.8C1280 62.7 1338 76.3 1396.2 80.2C1454.3 84 1512.7 78 1570.8 72.8C1629 67.7 1687 63.3 1745.2 59.8C1803.3 56.3 1861.7 53.7 1890.8 52.3L1920 51L1920 0L1890.8 0C1861.7 0 1803.3 0 1745.2 0C1687 0 1629 0 1570.8 0C1512.7 0 1454.3 0 1396.2 0C1338 0 1280 0 1221.8 0C1163.7 0 1105.3 0 1047.2 0C989 0 931 0 872.8 0C814.7 0 756.3 0 698.2 0C640 0 582 0 523.8 0C465.7 0 407.3 0 349.2 0C291 0 233 0 174.8 0C116.7 0 58.3 0 29.2 0L0 0Z" fill="#001220"></path><path d="M0 19L29.2 21C58.3 23 116.7 27 174.8 32.5C233 38 291 45 349.2 48.8C407.3 52.7 465.7 53.3 523.8 48.2C582 43 640 32 698.2 28.3C756.3 24.7 814.7 28.3 872.8 32C931 35.7 989 39.3 1047.2 36.7C1105.3 34 1163.7 25 1221.8 25.3C1280 25.7 1338 35.3 1396.2 37.8C1454.3 40.3 1512.7 35.7 1570.8 37C1629 38.3 1687 45.7 1745.2 42.8C1803.3 40 1861.7 27 1890.8 20.5L1920 14L1920 0L1890.8 0C1861.7 0 1803.3 0 1745.2 0C1687 0 1629 0 1570.8 0C1512.7 0 1454.3 0 1396.2 0C1338 0 1280 0 1221.8 0C1163.7 0 1105.3 0 1047.2 0C989 0 931 0 872.8 0C814.7 0 756.3 0 698.2 0C640 0 582 0 523.8 0C465.7 0 407.3 0 349.2 0C291 0 233 0 174.8 0C116.7 0 58.3 0 29.2 0L0 0Z" fill="#fcb514"></path></svg>