<svg id="visual" viewBox="0 0 1920 300" width="1920" height="300" xmlns="http://www.w3.org/2000/svg" xmlns:xlink="http://www.w3.org/1999/xlink" version="1.1"><rect x="0" y="0" width="1920" height="300" fill="#001220"></rect><path d="M0 254L35.5 228.5C71 203 142 152 213.2 141.2C284.3 130.3 355.7 159.7 426.8 188.3C498 217 569 245 640 258.2C711 271.3 782 269.7 853.2 249.8C924.3 230 995.7 192 1066.8 190.7C1138 189.3 1209 224.7 1280 244C1351 263.3 1422 266.7 1493.2 241C1564.3 215.3 1635.7 160.7 1706.8 137.7C1778 114.7 1849 123.3 1884.5 127.7L1920 132L1920 0L1884.5 0C1849 0 1778 0 1706.8 0C1635.7 0 1564.3 0 1493.2 0C1422 0 1351 0 1280 0C1209 0 1138 0 1066.8 0C995.7 0 924.3 0 853.2 0C782 0 711 0 640 0C569 0 498 0 426.8 0C355.7 0 284.3 0 213.2 0C142 0 71 0 35.5 0L0 0Z" fill="#fcb514"></path><path d="M0 180L35.5 169.7C71 159.3 142 138.7 213.2 119.3C284.3 100 355.7 82 426.8 84.8C498 87.7 569 111.3 640 114.7C711 118 782 101 853.2 89C924.3 77 995.7 70 1066.8 81C1138 92 1209 121 1280 120.7C1351 120.3 1422 90.7 1493.2 80.3C1564.3 70 1635.7 79 1706.8 81.5C1778 84 1849 80 1884.5 78L1920 76L1920 0L1884.5 0C1849 0 1778 0 1706.8 0C1635.7 0 1564.3 0 1493.2 0C1422 0 1351 0 1280 0C1209 0 1138 0 1066.8 0C995.7 0 924.3 0 853.2 0C782 0 711 0 640 0C569 0 498 0 426.8 0C355.7 0 284.3 0 213.2 0C142 0 71 0 35.5 0L0 0Z" fill="#001220"></path><path d="M0 27L35.5 30C71 33 142 39 213.2 42C284.3 45 355.7 45 426.8 56.7C498 68.3 569 91.7 640 88.7C711 85.7 782 56.3 853.2 45.7C924.3 35 995.7 43 1066.8 60.5C1138 78 1209 105 1280 101.7C1351 98.3 1422 64.7 1493.2 58.8C1564.3 53 1635.7 75 1706.8 89.8C1778 104.7 1849 112.3 1884.5 116.2L1920 120L1920 0L1884.5 0C1849 0 1778 0 1706.8 0C1635.7 0 1564.3 0 1493.2 0C1422 0 1351 0 1280 0C1209 0 1138 0 1066.8 0C995.7 0 924.3 0 853.2 0C782 0 711 0 640 0C569 0 498 0 426.8 0C355.7 0 284.3 0 213.2 0C142 0 71 0 35.5 0L0 0Z" fill="#fcb514"></path></svg>