<svg id="visual" viewBox="0 0 1920 300" width="1920" height="300" xmlns="http://www.w3.org/2000/svg" xmlns:xlink="http://www.w3.org/1999/xlink" version="1.1"><rect x="0" y="0" width="1920" height="300" fill="#001220"></rect><path d="M0 189L35.5 170.7C71 152.3 142 115.7 213.2 87C284.3 58.3 355.7 37.7 426.8 56.7C498 75.7 569 134.3 640 135.8C711 137.3 782 81.7 853.2 68.7C924.3 55.7 995.7 85.3 1066.8 97.2C1138 109 1209 103 1280 90.7C1351 78.3 1422 59.7 1493.2 65.3C1564.3 71 1635.7 101 1706.8 105.2C1778 109.3 1849 87.7 1884.5 76.8L1920 66L1920 301L1884.5 301C1849 301 1778 301 1706.8 301C1635.7 301 1564.3 301 1493.2 301C1422 301 1351 301 1280 301C1209 301 1138 301 1066.8 301C995.7 301 924.3 301 853.2 301C782 301 711 301 640 301C569 301 498 301 426.8 301C355.7 301 284.3 301 213.2 301C142 301 71 301 35.5 301L0 301Z" fill="#fcb514"></path><path d="M0 236L35.5 220.5C71 205 142 174 213.2 148.8C284.3 123.7 355.7 104.3 426.8 108.8C498 113.3 569 141.7 640 156.3C711 171 782 172 853.2 173.5C924.3 175 995.7 177 1066.8 167.7C1138 158.3 1209 137.7 1280 138.8C1351 140 1422 163 1493.2 181C1564.3 199 1635.7 212 1706.8 217.8C1778 223.7 1849 222.3 1884.5 221.7L1920 221L1920 301L1884.5 301C1849 301 1778 301 1706.8 301C1635.7 301 1564.3 301 1493.2 301C1422 301 1351 301 1280 301C1209 301 1138 301 1066.8 301C995.7 301 924.3 301 853.2 301C782 301 711 301 640 301C569 301 498 301 426.8 301C355.7 301 284.3 301 213.2 301C142 301 71 301 35.5 301L0 301Z" fill="#001220"></path><path d="M0 219L35.5 227.8C71 236.7 142 254.3 213.2 251.2C284.3 248 355.7 224 426.8 221.5C498 219 569 238 640 237C711 236 782 215 853.2 203.5C924.3 192 995.7 190 1066.8 204.5C1138 219 1209 250 1280 259C1351 268 1422 255 1493.2 254C1564.3 253 1635.7 264 1706.8 272C1778 280 1849 285 1884.5 287.5L1920 290L1920 301L1884.5 301C1849 301 1778 301 1706.8 301C1635.7 301 1564.3 301 1493.2 301C1422 301 1351 301 1280 301C1209 301 1138 301 1066.8 301C995.7 301 924.3 301 853.2 301C782 301 711 301 640 301C569 301 498 301 426.8 301C355.7 301 284.3 301 213.2 301C142 301 71 301 35.5 301L0 301Z" fill="#fcb514"></path></svg>